{
  "asset": {
    "version": "2.0",
    "generator": "HoloScript procedural MNI152 pial v1 (ellipsoid + gyri modulation)"
  },
  "scenes": [
    {
      "nodes": [
        0
      ]
    }
  ],
  "nodes": [
    {
      "mesh": 0,
      "name": "MNI152-pial-v1"
    }
  ],
  "meshes": [
    {
      "name": "pial",
      "primitives": [
        {
          "attributes": {
            "POSITION": 0
          },
          "indices": 1,
          "mode": 4
        }
      ]
    }
  ],
  "buffers": [
    {
      "uri": "data:application/octet-stream;base64,",
      "byteLength": 3528
    }
  ],
  "bufferViews": [
    {
      "buffer": 0,
      "byteOffset": 0,
      "byteLength": 1848,
      "target": 34962
    },
    {
      "buffer": 0,
      "byteOffset": 1848,
      "byteLength": 1680,
      "target": 34963
    }
  ],
  "accessors": [
    {
      "bufferView": 0,
      "byteOffset": 0,
      "componentType": 5126,
      "count": 154,
      "type": "VEC3",
      "min": [
        -82,
        -92,
        -72
      ],
      "max": [
        82,
        92,
        72
      ]
    },
    {
      "bufferView": 1,
      "byteOffset": 0,
      "componentType": 5123,
      "count": 840,
      "type": "SCALAR"
    }
  ]
}